<svg xmlns="http://www.w3.org/2000/svg" width="160.966" height="34.032" viewBox="0 0 160.966 34.032"><g transform="translate(-15.034 -9.751)"><g transform="translate(135.708 19.368)"><path d="M449.577,44.94l-1.078,2.1a3.218,3.218,0,0,0-.837-.491,2.551,2.551,0,0,0-.961-.187c-.046,0-.1,0-.152.007a.725.725,0,0,0-.166.034,1.413,1.413,0,0,0-.581.276.669.669,0,0,0-.263.553.649.649,0,0,0,.249.532,2.308,2.308,0,0,0,.539.325q.111.042.214.076c.07.023.136.044.2.062l.691.194a5.055,5.055,0,0,1,1.832.961,2.358,2.358,0,0,1,.74,1.9v.221a4.891,4.891,0,0,1-.263,1.4,2.69,2.69,0,0,1-.816,1.182,3.465,3.465,0,0,1-1.189.678,5.714,5.714,0,0,1-1.355.276c-.074,0-.145,0-.214.007s-.136.007-.2.007a6.085,6.085,0,0,1-1.922-.311,6.816,6.816,0,0,1-1.742-.864l1.161-2.2a5.582,5.582,0,0,0,1.113.774,2.72,2.72,0,0,0,1.293.318h.111a1.609,1.609,0,0,0,.83-.283.869.869,0,0,0,.374-.767.743.743,0,0,0-.311-.622,2.6,2.6,0,0,0-.7-.373q-.166-.055-.332-.1l-.3-.09a.277.277,0,0,0-.062-.021.253.253,0,0,1-.062-.021,6.092,6.092,0,0,1-1.964-.885,2.365,2.365,0,0,1-.733-2.019,3.325,3.325,0,0,1,1.016-2.544,3.618,3.618,0,0,1,2.579-.954,6.389,6.389,0,0,1,.65.034,4.777,4.777,0,0,1,.664.118,7.963,7.963,0,0,1,1.03.29,5.819,5.819,0,0,1,.919.415Z" transform="translate(-442.304 -44.013)" fill="#fb8122"/><path d="M480.749,49.05V45.026h2.71V55.452h-2.71V51.179h-3.913v4.273h-2.711V45.026h2.711V49.05Z" transform="translate(-465.138 -44.68)" fill="#fb8122"/><path d="M517.345,43.8a6.062,6.062,0,0,1,4.01,1.514,4.85,4.85,0,0,1,1.756,3.865,5.558,5.558,0,0,1-1.625,4.134,6.139,6.139,0,0,1-8.276,0,5.545,5.545,0,0,1-1.632-4.134,4.849,4.849,0,0,1,1.756-3.865,6,6,0,0,1,4.01-1.5Zm-2.081,3.478a2.6,2.6,0,0,0-.864,1.915,3.057,3.057,0,0,0,.864,2.226,2.887,2.887,0,0,0,4.162,0,3.069,3.069,0,0,0,.864-2.231,2.606,2.606,0,0,0-.864-1.92,2.882,2.882,0,0,0-2.081-.839A2.937,2.937,0,0,0,515.264,47.28Z" transform="translate(-492.014 -43.802)" fill="#fb8122"/><path d="M556.864,45.026h4.148a4.4,4.4,0,0,1,2.738.83,3.1,3.1,0,0,1,1.051,2.613,3.416,3.416,0,0,1-.961,2.689,3.989,3.989,0,0,1-2.731.85h-1.535v3.443h-2.71Zm2.71,4.784h.456a4.9,4.9,0,0,0,1.341-.145q.608-.158.608-1.113,0-.991-.581-1.166a4.777,4.777,0,0,0-1.369-.175h-.456Z" transform="translate(-524.509 -44.68)" fill="#fb8122"/></g><g transform="translate(129.486 29.681)"><path d="M428.1,82.132h-2.477v-1.68a4.537,4.537,0,0,0-1.031-.133,4.287,4.287,0,0,0-4.316,4.332,4.559,4.559,0,0,0,.076.844,4.319,4.319,0,0,0,8.541-.514c.008-.1.011-.209.011-.313A4.154,4.154,0,0,0,428.1,82.132Z" transform="translate(-420.272 -80.319)" fill="#fb8122"/></g><path d="M123.539,18.692l-2.987-2.176,5.2-6.342,4.093,2.95Z" transform="translate(-75.717 -0.304)" fill="#fb8122"/><g transform="translate(15.034 9.751)"><path d="M286.066,47.742a4.153,4.153,0,0,0-3.171,1.309,4.348,4.348,0,0,0-1.143,3.005,4.245,4.245,0,0,0,1.143,3.024,4.757,4.757,0,0,0,6.361-.005,4.315,4.315,0,0,0,1.125-3.036,4.419,4.419,0,0,0-1.125-3.018A4.027,4.027,0,0,0,286.066,47.742Z" transform="translate(-206.423 -37.012)" fill="none"/><path d="M418.014,49.573a4.348,4.348,0,0,0-1.143,3.005,4.246,4.246,0,0,0,1.143,3.023,4.14,4.14,0,0,0,3.171,1.217,4.925,4.925,0,0,0,1.993-.379V48.66a4.74,4.74,0,0,0-1.993-.4A4.154,4.154,0,0,0,418.014,49.573Z" transform="translate(-303.38 -37.387)" fill="none"/><path d="M110.473,48.264a4.153,4.153,0,0,0-3.171,1.309,4.347,4.347,0,0,0-1.143,3.005A4.245,4.245,0,0,0,107.3,55.6a4.757,4.757,0,0,0,6.36-.005,4.316,4.316,0,0,0,1.125-3.037,4.418,4.418,0,0,0-1.125-3.018A4.025,4.025,0,0,0,110.473,48.264Z" transform="translate(-80.422 -37.387)" fill="none"/><path d="M71.654,31.944l-.016.031.016.006Z" transform="translate(-55.651 -25.676)" fill="#1d2228"/><path d="M30.023,37.022A9.075,9.075,0,0,0,26.1,35.289q-.258-.036-.59-.092a5.678,5.678,0,0,1-.7-.166,4.1,4.1,0,0,1-1.2-.461,1.02,1.02,0,0,1-.535-.94.9.9,0,0,1,.406-.792,2.571,2.571,0,0,1,.922-.387,1.391,1.391,0,0,1,.387-.092q.2-.018.387-.018a5.327,5.327,0,0,1,.756.055q.387.055.793.129a8.373,8.373,0,0,1,1.088.295,8.189,8.189,0,0,1,.977.406l2.233-4.247a12.818,12.818,0,0,0-3.026-.934,18.316,18.316,0,0,0-3.189-.276h-.221a10.4,10.4,0,0,0-5.568,1.659,5.563,5.563,0,0,0-2.544,5.052,4.248,4.248,0,0,0,1.309,3.558,7.853,7.853,0,0,0,2.895,1.42q.405.111.793.2t.793.166A8.869,8.869,0,0,1,24.1,40.4a1.2,1.2,0,0,1,.774,1.161,1.087,1.087,0,0,1-.443.922,2.436,2.436,0,0,1-1,.443c-.123.025-.24.043-.35.055a2.814,2.814,0,0,1-.313.018,5.452,5.452,0,0,1-1.069-.111,11.066,11.066,0,0,1-1.143-.3,16.08,16.08,0,0,1-1.659-.682,8.074,8.074,0,0,1-1.438-.866l-2.434,4.72A15.414,15.414,0,0,0,18.7,47.346a14.353,14.353,0,0,0,3.964.553h.406a11.72,11.72,0,0,0,5.863-1.751,5.713,5.713,0,0,0,2.655-5.254A4.66,4.66,0,0,0,30.023,37.022Z" transform="translate(-15.034 -22.679)" fill="#1d2228"/><path d="M96.951,28.359V30.24a6.164,6.164,0,0,0-2.3-1.717,8.624,8.624,0,0,0-2.819-.717,1.846,1.846,0,0,0-.37-.037h-.37a8.672,8.672,0,0,0-6.838,3.005A10.713,10.713,0,0,0,84.287,44.9,8.785,8.785,0,0,0,91.164,47.9h.294a1.147,1.147,0,0,0,.294-.037,7.821,7.821,0,0,0,2.915-.72,4.968,4.968,0,0,0,2.211-1.971h.073v2.1h6.711V28.359Zm-.9,12.531a4.763,4.763,0,0,1-6.36.006,4.247,4.247,0,0,1-1.141-3.025,4.343,4.343,0,0,1,1.141-3.005,4.149,4.149,0,0,1,3.172-1.308,4.017,4.017,0,0,1,3.189,1.277,4.411,4.411,0,0,1,1.127,3.016A4.315,4.315,0,0,1,96.047,40.891Z" transform="translate(-62.808 -22.68)" fill="#1d2228"/><path d="M188.313,27.767a8.154,8.154,0,0,0-3.411.664,6.651,6.651,0,0,0-2.636,2.36h-.074V28.357h-6.711V47.273h6.711V37.5a6.167,6.167,0,0,1,.737-3.079,2.892,2.892,0,0,1,2.765-1.309,2.5,2.5,0,0,1,2.323.977,4.63,4.63,0,0,1,.664,2.12q.036.369.037.737V47.273h6.711V35.621a9.186,9.186,0,0,0-1.641-5.678Q192.148,27.767,188.313,27.767Z" transform="translate(-130.167 -22.679)" fill="#1d2228"/><path d="M272.551,28.359V30.35l-.073.037a5.686,5.686,0,0,0-2.454-2.011,8.028,8.028,0,0,0-3.115-.607,8.9,8.9,0,0,0-7.024,3.042,10.561,10.561,0,0,0-2.672,7.208,9.618,9.618,0,0,0,2.6,6.857,8.82,8.82,0,0,0,6.73,2.768,8.106,8.106,0,0,0,3.3-.627,8.772,8.772,0,0,0,2.711-1.954v.921a8.385,8.385,0,0,1-.794,3.816q-.792,1.567-3.522,1.567c-.124,0-.251-.006-.387-.017a3.86,3.86,0,0,1-.387-.056,3.4,3.4,0,0,1-.59-.13,3.371,3.371,0,0,1-1.327-.811,2.08,2.08,0,0,1-.48-.867h-7.521a6.329,6.329,0,0,0,2.675,4.609,13.366,13.366,0,0,0,5.07,2.288,11.269,11.269,0,0,0,1.548.257c.517.048,1.008.073,1.474.073q5.236,0,8.094-2.618t2.858-8.665V28.359Zm-.9,12.382a4.755,4.755,0,0,1-6.36.006,4.242,4.242,0,0,1-1.144-3.022,4.346,4.346,0,0,1,1.144-3.005,4.145,4.145,0,0,1,3.169-1.31,4.025,4.025,0,0,1,3.191,1.279,4.417,4.417,0,0,1,1.124,3.016A4.313,4.313,0,0,1,271.647,40.741Z" transform="translate(-188.813 -22.68)" fill="#1d2228"/><path d="M353.563,9.751h-6.711v5.678h-2.176V20.96h2.176V34.345h6.711V20.96h3.8V15.429h-3.8Z" transform="translate(-251.576 -9.751)" fill="#1d2228"/><path d="M400.4,34.866a4.346,4.346,0,0,0-1.144,3.005A4.249,4.249,0,0,0,400.4,40.9a4.135,4.135,0,0,0,3.169,1.214,4.9,4.9,0,0,0,1.994-.378v2.692h8.812v2.85h-6.711v-2.1h-.076a4.969,4.969,0,0,1-2.211,1.971,7.807,7.807,0,0,1-2.912.72,1.184,1.184,0,0,1-.3.037h-.294a11.029,11.029,0,0,1-1.582-.113A8.616,8.616,0,0,1,395,44.9a10.712,10.712,0,0,1-.037-14.122,8.677,8.677,0,0,1,6.84-3.005h.367a1.826,1.826,0,0,1,.37.037,8.657,8.657,0,0,1,2.821.717,6.209,6.209,0,0,1,2.3,1.717V28.359h6.711v2.929h-8.812v2.666a4.713,4.713,0,0,0-1.994-.4A4.143,4.143,0,0,0,400.4,34.866Z" transform="translate(-285.764 -22.68)" fill="#1d2228"/><path d="M490.852,87.616A13.491,13.491,0,0,0,506.8,87.6a9.081,9.081,0,0,0,.965-.859H489.859A8.98,8.98,0,0,0,490.852,87.616Z" transform="translate(-355.754 -64.994)" fill="#1d2228"/><path d="M506.779,30.31a12.859,12.859,0,0,0-7.983-2.673v.037a12.679,12.679,0,0,0-7.983,2.636,9.119,9.119,0,0,0-.983.883h17.931A9.08,9.08,0,0,0,506.779,30.31Z" transform="translate(-355.734 -22.585)" fill="#1d2228"/></g></g></svg>